<?xml version="1.0" standalone="no"?>
<!DOCTYPE svg PUBLIC "-//W3C//DTD SVG 20010904//EN"
 "http://www.w3.org/TR/2001/REC-SVG-20010904/DTD/svg10.dtd">
<svg version="1.0" xmlns="http://www.w3.org/2000/svg"
 width="1000.000000pt" height="1000.000000pt" viewBox="0 0 1000.000000 1000.000000"
 preserveAspectRatio="xMidYMid meet">
<metadata>
Created by potrace 1.11, written by Peter Selinger 2001-2013
</metadata>
<g transform="translate(0.000000,1000.000000) scale(0.100000,-0.100000)"
fill="#000000" stroke="none">
<path d="M5280 7759 c-131 -34 -226 -67 -295 -101 -140 -69 -156 -80 -298
-202 -46 -39 -178 -196 -204 -240 -31 -56 -113 -226 -113 -235 0 -6 -4 -19 -9
-29 -8 -16 -19 -53 -43 -152 -6 -25 -11 -130 -12 -235 0 -209 10 -278 63 -418
32 -84 29 -95 -24 -85 -13 3 -26 2 -27 -2 -5 -10 -98 -38 -103 -30 -2 4 -4 63
-4 131 1 223 -44 376 -164 550 -61 88 -100 132 -184 200 -168 138 -392 219
-606 219 -92 0 -260 -27 -322 -52 -153 -61 -254 -126 -361 -232 -126 -126
-199 -250 -250 -426 -25 -85 -28 -111 -29 -250 0 -132 3 -168 24 -245 42 -161
123 -302 252 -441 43 -46 58 -71 64 -102 4 -23 4 -46 0 -52 -8 -13 -35 -13
-35 0 0 6 -5 10 -11 10 -6 0 -26 7 -45 16 -33 16 -74 15 -130 -1 -19 -6 -22
-2 -27 35 -7 57 -30 88 -72 96 -51 9 -81 -2 -104 -40 -25 -40 -27 -73 -5 -97
14 -16 13 -18 -15 -24 -34 -7 -36 -14 -19 -62 10 -28 17 -33 45 -33 l33 0 -20
-37 c-25 -47 -25 -69 0 -146 11 -34 22 -74 25 -90 8 -39 38 -66 85 -73 l40 -7
0 -68 c0 -37 5 -90 12 -118 9 -40 9 -75 -2 -161 -12 -103 -11 -111 7 -142 15
-26 18 -39 10 -62 -12 -35 6 -127 34 -172 28 -46 25 -134 -7 -209 -44 -103
-54 -175 -39 -288 5 -37 4 -62 -3 -69 -7 -7 -7 -19 0 -40 7 -21 7 -37 -1 -54
-37 -82 44 -158 133 -124 24 9 26 8 26 -19 0 -66 65 -77 197 -35 86 27 143 70
143 106 0 10 1 21 2 26 1 9 -72 50 -93 51 -9 1 -24 13 -34 27 -16 25 -16 29
24 139 23 62 41 116 41 122 0 5 16 35 35 67 l35 58 0 138 c0 117 3 144 20 184
12 25 29 76 39 114 10 37 27 83 39 102 12 19 22 43 22 54 0 10 -29 50 -65 87
-36 38 -65 76 -65 85 0 9 14 29 30 46 20 20 29 36 25 48 -3 10 4 29 18 46 77
95 115 187 123 297 l7 94 116 -5 c126 -5 215 5 321 37 19 6 35 11 35 11 1 0
-1 -44 -3 -97 -8 -168 26 -327 101 -478 30 -61 118 -185 166 -234 43 -43 153
-132 178 -144 19 -9 23 -16 18 -36 -4 -14 -17 -35 -29 -46 -23 -22 -42 -87
-31 -105 4 -6 4 -24 0 -40 -13 -58 -57 -30 -97 60 -40 93 -41 98 -28 160 7 32
10 66 7 75 -9 23 -43 18 -65 -10 l-20 -25 -26 44 c-26 45 -51 63 -62 45 -4 -6
-20 -8 -40 -4 -47 8 -81 -16 -86 -63 -6 -44 26 -91 90 -136 26 -18 43 -40 52
-66 7 -22 38 -89 69 -148 49 -96 64 -116 121 -161 36 -29 72 -56 79 -61 13 -7
12 -13 -3 -46 -22 -49 -40 -70 -93 -112 -59 -46 -57 -63 12 -121 25 -20 9 -28
-83 -43 -90 -14 -112 -30 -92 -67 12 -24 13 -51 2 -51 -5 0 -15 12 -22 28 -8
15 -22 37 -33 48 -10 12 -21 34 -26 50 -4 16 -19 35 -33 43 -23 13 -31 12 -92
-15 -103 -45 -167 -119 -139 -163 10 -15 83 -21 137 -10 15 3 20 -3 22 -26 16
-139 29 -216 45 -263 10 -30 19 -64 19 -74 0 -11 12 -35 26 -54 24 -31 31 -34
81 -34 76 0 151 22 270 81 92 46 106 50 135 40 18 -5 54 -13 80 -16 38 -6 48
-12 57 -34 6 -14 24 -40 39 -56 15 -17 40 -47 55 -67 l28 -38 -22 -42 c-20
-40 -21 -51 -14 -168 9 -144 9 -157 0 -225 -5 -35 -3 -55 7 -68 20 -27 120
-46 239 -47 93 0 108 2 124 20 14 16 16 25 8 42 -8 19 -28 27 -99 44 -100 24
-95 15 -70 124 62 275 69 333 50 405 -18 66 -17 102 1 109 10 4 15 20 15 53 0
50 -25 114 -74 192 -26 40 -27 45 -13 74 8 18 18 55 22 82 16 115 106 232 199
259 66 20 191 103 237 158 43 52 57 76 63 114 34 193 59 281 86 309 28 30 70
105 70 125 0 5 -7 10 -15 10 -30 0 -13 37 46 100 54 58 139 171 139 185 0 3
11 22 24 43 12 20 23 39 24 42 1 5 6 22 22 70 40 117 44 148 45 305 0 88 -3
181 -7 206 l-7 46 128 7 c71 4 152 13 180 20 28 7 52 11 54 9 3 -3 -11 -119
-33 -265 -25 -167 -1 -505 51 -713 246 -984 1149 -1658 2156 -1610 158 7 201
13 350 44 392 82 803 310 1073 596 318 336 509 722 575 1160 20 137 20 510 0
647 -68 451 -299 892 -634 1210 -281 267 -606 442 -1001 537 -176 42 -513 57
-725 32 -169 -21 -369 -71 -525 -134 -73 -29 -262 -126 -324 -165 -28 -18 -53
-32 -57 -32 -4 0 -10 28 -14 63 -19 180 -133 433 -266 590 -66 78 -177 180
-249 229 -49 34 -233 128 -250 128 -6 0 -18 4 -28 9 -9 6 -62 21 -118 35 -91
24 -118 26 -290 25 -104 0 -205 -5 -224 -10z m-323 -931 c25 -23 30 -66 12
-99 -8 -16 -7 -25 6 -39 22 -24 28 -80 13 -110 -16 -30 -60 -53 -108 -56 -69
-4 -70 -1 -70 171 0 173 -3 167 79 159 27 -2 54 -13 68 -26z m408 -139 c0 -9
-9 -13 -28 -11 -39 4 -57 -14 -57 -57 0 -50 11 -63 50 -59 42 4 51 -17 15 -34
-22 -10 -32 -9 -61 7 -59 32 -66 119 -12 162 30 25 93 19 93 -8z m201 -22 c46
-87 -29 -175 -112 -131 -39 21 -51 59 -37 115 19 72 115 83 149 16z m298 -35
c10 -79 5 -105 -19 -96 -13 5 -16 19 -14 61 3 63 -18 96 -49 77 -13 -9 -17
-25 -17 -69 -1 -43 -5 -59 -18 -66 -15 -9 -17 -4 -17 54 0 65 -10 87 -41 87
-23 0 -29 -20 -29 -92 0 -51 -2 -59 -17 -56 -15 3 -19 16 -21 77 -4 96 4 105
83 99 33 -3 71 -2 85 2 50 14 64 -1 74 -78z m-696 61 c12 -10 22 -31 24 -48 3
-30 3 -30 -54 -33 -49 -3 -58 -6 -58 -21 0 -22 19 -31 68 -31 34 0 35 -1 20
-17 -23 -23 -76 -19 -104 8 -35 33 -34 101 2 134 32 29 73 32 102 8z m885 -14
c10 -12 17 -32 15 -43 -3 -18 -11 -22 -53 -24 -27 -2 -54 -7 -59 -12 -17 -17
15 -40 55 -40 44 0 51 -15 15 -31 -19 -9 -32 -8 -62 7 -59 29 -71 107 -23 155
27 27 86 20 112 -12z m81 -136 c-21 -15 -34 -8 -34 17 0 25 22 32 38 11 11
-13 10 -18 -4 -28z m-3314 -218 c22 -20 26 -65 10 -95 -8 -14 -5 -28 11 -55
47 -80 -5 -148 -111 -143 l-55 3 -3 157 c-2 156 -2 157 20 160 40 6 107 -8
128 -27z m320 -136 c0 -147 -1 -160 -17 -157 -16 3 -18 19 -20 148 -3 157 -1
170 22 170 13 0 15 -23 15 -161z m107 107 c-8 -20 -36 -21 -43 -1 -4 8 0 22 7
31 11 13 14 13 27 0 8 -8 12 -22 9 -30z m-232 -92 c20 -8 47 -58 40 -77 -4 -8
-24 -14 -58 -16 -65 -3 -80 -16 -48 -42 16 -13 34 -18 53 -15 31 5 47 -8 22
-18 -36 -14 -74 -6 -99 21 -62 67 6 179 90 147z m223 -85 c-3 -72 -10 -100
-23 -87 -7 6 -13 167 -7 173 2 2 11 1 19 -2 12 -5 14 -21 11 -84z m179 69 c12
-13 23 -34 25 -48 3 -22 0 -24 -47 -27 -58 -3 -75 -8 -75 -22 0 -16 60 -43 81
-38 23 6 35 -9 13 -17 -30 -12 -72 -6 -95 13 -18 15 -23 29 -23 64 0 82 73
127 121 75z m393 2 c11 -11 20 -33 20 -50 0 -30 -1 -30 -54 -30 -62 0 -75 -11
-48 -38 14 -14 30 -19 56 -17 37 3 49 -8 20 -19 -30 -12 -72 -6 -95 13 -20 16
-24 28 -23 67 1 38 6 52 28 71 33 28 69 30 96 3z m-277 -29 c16 -40 38 -62 44
-45 2 5 14 27 27 49 20 32 26 37 31 23 4 -11 -8 -44 -32 -88 l-40 -71 -37 76
c-34 69 -38 95 -16 95 4 0 15 -18 23 -39z m3154 -47 c-4 -4 -17 -12 -29 -18
-40 -21 -30 -94 42 -308 35 -104 68 -188 74 -188 6 0 30 73 54 163 l43 163
-28 79 c-20 58 -34 83 -50 90 -44 19 -22 25 97 25 112 0 152 -10 96 -24 -15
-4 -26 -16 -30 -31 -7 -28 7 -121 29 -195 7 -25 25 -85 40 -135 35 -123 44
-144 55 -125 5 9 18 54 30 100 11 47 25 96 30 110 15 38 42 160 45 204 3 41
-11 76 -32 76 -6 0 -15 5 -18 10 -4 6 26 10 82 9 72 0 84 -2 65 -12 -42 -20
-76 -104 -137 -342 -13 -49 -33 -126 -45 -170 -12 -44 -29 -109 -39 -144 -9
-36 -21 -66 -27 -68 -6 -2 -23 41 -38 99 -16 57 -39 139 -52 183 -12 44 -28
98 -33 120 -20 75 -44 85 -54 23 -3 -18 -17 -76 -31 -128 -13 -52 -36 -140
-50 -194 -15 -55 -29 -102 -32 -105 -9 -9 -27 28 -50 104 -84 272 -174 530
-200 574 -10 17 -26 34 -36 37 -48 15 -7 24 109 24 69 0 123 -3 120 -6z
m-2779 -56 c-2 -13 -10 -23 -18 -23 -8 0 -16 10 -18 23 -3 17 2 22 18 22 16 0
21 -5 18 -22z m4267 -194 c37 0 51 -5 53 -16 3 -17 -25 -28 -75 -28 l-33 0 0
-180 c0 -169 1 -181 21 -201 21 -21 38 -21 84 -4 16 6 15 2 -7 -21 -19 -20
-37 -28 -60 -28 -107 1 -118 25 -118 258 l0 176 -35 0 c-37 0 -47 16 -17 27
39 14 76 49 92 87 9 23 21 50 26 61 6 14 10 -1 14 -55 l5 -75 50 -1z m752 -6
c17 -16 23 -33 23 -63 0 -69 -37 -87 -64 -31 -27 57 -42 63 -65 25 -52 -85
-44 -417 10 -384 4 3 10 1 14 -5 4 -6 -29 -10 -96 -10 -56 0 -99 3 -95 8 4 4
13 7 19 7 6 0 17 11 25 25 10 19 12 66 9 205 l-5 179 -29 23 -28 23 36 0 c20
0 51 3 68 6 l31 7 0 -48 c0 -50 15 -58 35 -18 16 32 37 54 60 63 28 12 26 12
52 -12z m-1401 -31 c33 -36 54 -90 54 -139 0 -26 -3 -28 -47 -29 -196 -5 -188
-1 -179 -82 15 -143 105 -200 187 -117 33 32 34 32 17 -5 -19 -41 -74 -69
-136 -69 -68 1 -98 23 -134 94 -62 125 -16 330 86 376 18 8 50 13 76 10 35 -3
51 -11 76 -39z m308 28 c15 -8 34 -15 41 -15 13 0 25 -43 25 -94 0 -28 -3 -25
-28 29 -31 65 -65 90 -106 79 -32 -8 -52 -48 -40 -79 5 -14 43 -49 84 -78 81
-57 109 -97 109 -157 1 -47 -31 -114 -64 -136 -34 -22 -112 -20 -137 3 -16 14
-23 15 -39 5 -18 -12 -19 -9 -18 70 0 46 3 76 6 68 43 -128 111 -182 163 -130
25 25 26 77 2 105 -9 12 -39 38 -67 59 -85 65 -95 82 -95 155 0 58 2 65 34 97
38 38 81 44 130 19z m689 3 c12 -6 27 -17 35 -24 21 -22 62 -117 62 -146 0
-27 -3 -28 -47 -29 -115 -3 -172 -7 -183 -14 -14 -9 -5 -103 15 -151 33 -79
109 -93 172 -32 42 41 43 23 1 -26 -56 -64 -162 -71 -219 -14 -80 81 -90 247
-22 366 38 66 129 101 186 70z m599 -20 c0 -18 2 -37 3 -43 2 -5 3 -14 4 -19
0 -4 23 15 49 43 51 54 77 62 126 40 48 -22 56 -60 56 -257 0 -175 1 -180 23
-195 21 -15 17 -16 -68 -16 -78 0 -88 1 -72 13 28 21 35 63 36 212 1 115 -2
145 -16 174 -24 47 -53 50 -86 10 -39 -46 -51 -101 -52 -243 0 -125 1 -129 25
-147 l25 -20 -94 0 -94 0 27 25 c29 27 31 41 28 274 -1 110 -4 126 -22 146
-11 12 -20 23 -20 26 0 2 27 5 60 7 l60 3 2 -33z m-6276 -548 c43 -22 87 -40
96 -40 27 0 28 -12 12 -86 -9 -38 -18 -78 -20 -89 -2 -12 -22 -49 -45 -83 -37
-55 -44 -61 -69 -56 -15 4 -43 -1 -61 -9 -52 -23 -77 -26 -96 -11 -17 12 -15
16 24 54 43 41 43 42 37 98 -3 31 -10 66 -16 78 -7 14 -6 33 1 60 6 21 11 56
11 76 0 35 4 39 41 47 3 0 41 -17 85 -39z m6054 -213 c0 -96 3 -177 7 -180 3
-4 22 11 40 33 30 34 40 40 74 40 30 0 46 -6 64 -26 14 -15 25 -30 26 -33 0
-3 3 -15 6 -26 3 -11 7 -96 10 -190 4 -159 6 -171 26 -187 21 -17 19 -18 -68
-18 l-90 0 25 20 c25 19 25 19 25 187 0 195 -9 233 -56 233 -23 0 -35 -9 -56
-42 -27 -39 -28 -48 -32 -185 -4 -154 1 -193 24 -193 8 0 15 -4 15 -10 0 -6
-37 -10 -91 -10 -57 0 -88 4 -84 10 3 6 12 10 20 10 26 0 35 98 35 385 l0 283
-30 30 c-35 36 -29 40 53 41 l57 1 0 -173z m-1852 133 c99 -71 76 -235 -41
-296 -16 -9 -27 -19 -25 -24 2 -5 23 -20 48 -33 72 -38 119 -129 105 -200 -12
-57 -44 -115 -77 -139 -31 -22 -43 -23 -206 -26 -121 -2 -172 0 -167 7 3 6 12
11 20 11 8 0 21 10 29 22 14 19 16 67 16 323 0 319 -4 347 -48 353 -51 8 -16
21 61 25 241 9 241 10 285 -23z m-2981 -1 c50 -24 62 -54 44 -106 -11 -29 -10
-37 2 -51 31 -34 26 -101 -10 -136 -24 -24 -32 -27 -92 -24 l-66 3 -3 158 c-2
156 -2 158 20 167 36 14 58 12 105 -11z m353 -143 c0 -83 -4 -157 -8 -164 -5
-7 -16 -10 -25 -6 -15 5 -17 26 -17 164 0 160 3 175 38 162 9 -3 12 -43 12
-156z m-102 -25 c34 -52 27 -65 -42 -71 -33 -3 -61 -10 -63 -16 -5 -15 49 -34
76 -27 25 6 30 -22 5 -31 -57 -22 -111 8 -121 66 -16 103 89 161 145 79z m288
9 c19 -18 24 -34 24 -70 0 -62 -32 -95 -91 -93 -41 2 -57 13 -77 50 -50 92 68
184 144 113z m202 14 c20 -13 22 -24 22 -95 0 -72 -2 -79 -20 -79 -21 0 -22 1
-24 70 -2 60 -17 84 -45 75 -23 -7 -24 -12 -22 -92 1 -50 -1 -53 -23 -53 -23
0 -25 3 -28 73 -5 90 -3 95 36 106 48 14 79 13 104 -5z m212 -4 c14 -8 17 -53
11 -182 -2 -44 -38 -69 -91 -66 -37 2 -45 6 -45 23 0 16 7 20 36 21 66 2 85
34 20 34 -49 0 -81 35 -81 89 1 78 76 118 150 81z m2310 -133 c0 -24 3 -46 6
-50 3 -3 20 15 38 41 32 48 51 58 91 48 32 -8 50 -68 32 -105 -17 -36 -39 -32
-62 11 -23 43 -46 48 -68 15 -23 -36 -30 -84 -29 -215 1 -140 6 -162 33 -162
10 0 19 -4 19 -10 0 -6 -37 -10 -90 -10 -53 0 -90 4 -90 10 0 6 7 10 15 10 27
0 35 48 34 203 -2 180 -6 209 -37 222 -43 19 -19 30 71 34 l37 1 0 -43z m461
14 l29 -29 1 -144 c1 -196 8 -239 39 -255 20 -10 22 -13 8 -18 -9 -4 -38 -7
-65 -8 -41 -2 -49 1 -58 21 -12 28 -19 28 -59 -3 -73 -55 -136 -14 -136 88 0
59 32 104 100 142 58 33 100 83 100 122 0 13 -7 39 -14 58 -12 29 -20 35 -45
35 -34 0 -45 -14 -55 -72 -5 -25 -13 -39 -27 -43 -52 -17 -60 63 -11 107 29
25 40 28 98 28 59 0 68 -3 95 -29z m263 13 c3 -9 6 -29 6 -44 0 -42 15 -45 39
-6 45 73 120 89 165 35 29 -34 30 -42 26 -235 -3 -155 3 -189 33 -200 15 -5
-5 -9 -62 -11 -46 -2 -86 -2 -89 1 -3 3 5 14 17 23 22 18 23 26 24 189 2 148
0 173 -16 197 -39 60 -102 10 -126 -101 -12 -56 -15 -231 -5 -269 4 -13 12
-23 20 -23 7 0 16 -4 19 -10 4 -6 -27 -10 -84 -10 -54 0 -91 4 -91 10 0 6 7
10 15 10 28 0 35 48 35 225 0 172 0 174 -26 204 l-26 31 60 0 c45 0 61 -4 66
-16z m612 -20 c37 -38 44 -77 20 -109 -20 -27 -43 -12 -57 37 -20 77 -30 89
-63 86 -44 -4 -66 -48 -73 -150 -14 -200 80 -343 162 -247 14 18 29 45 32 60
3 16 9 29 14 29 12 0 12 -2 -12 -65 -59 -157 -246 -110 -280 71 -20 108 4 217
64 283 29 31 52 40 111 40 43 1 52 -3 82 -35z m-3540 1 c3 -8 -1 -22 -10 -31
-9 -9 -23 -13 -31 -10 -15 5 -20 37 -8 49 12 12 44 7 49 -8z m-192 -737 c-8
-62 -79 -208 -100 -208 -12 0 -15 6 -11 22 4 14 0 29 -11 41 -16 18 -16 20 1
32 14 10 16 18 7 39 -13 35 -13 76 0 76 16 0 23 2 65 21 22 10 43 19 48 19 4
0 5 -19 1 -42z m1865 -96 c5 -9 16 -44 25 -77 90 -327 88 -322 118 -335 13 -5
20 -9 16 -10 -9 -2 -81 -2 -124 -1 l-26 1 21 18 c21 16 22 20 9 77 l-13 60
-51 3 c-61 4 -72 -7 -81 -76 -5 -44 -3 -52 16 -64 32 -20 26 -23 -38 -20 l-58
4 21 21 c21 21 39 73 86 242 48 178 58 196 79 157z m406 4 c14 -10 25 -11 38
-4 10 5 20 8 22 6 2 -2 5 -32 7 -67 3 -69 -15 -97 -27 -41 -9 42 -66 100 -98
100 -16 0 -36 -12 -55 -34 -78 -89 -54 -318 37 -356 47 -19 73 -9 111 43 42
57 56 37 15 -23 -96 -138 -275 -34 -275 160 1 93 42 185 98 214 34 18 104 19
127 2z m299 -73 c14 -49 26 -94 26 -101 0 -7 4 -20 9 -30 5 -9 15 -39 21 -67
18 -82 41 -134 62 -141 34 -10 10 -18 -58 -17 -71 1 -88 7 -54 18 20 6 22 12
17 49 -4 23 -11 54 -16 69 -10 24 -15 27 -61 27 -45 0 -52 -3 -60 -25 -5 -14
-11 -44 -12 -67 -3 -36 1 -44 22 -55 14 -7 22 -13 18 -14 -10 -1 -93 -1 -110
0 -6 1 -3 11 9 24 18 19 73 171 73 201 0 28 66 216 76 216 6 0 23 -39 38 -87z
m373 71 c53 -6 94 -40 123 -99 18 -38 21 -59 19 -128 -4 -71 -8 -89 -34 -130
-48 -75 -90 -84 -320 -67 -5 0 1 6 15 13 32 16 39 54 39 235 1 130 -1 144 -19
159 -11 10 -20 21 -20 24 0 7 115 3 197 -7z m608 7 c29 -1 31 -5 84 -146 29
-80 57 -145 62 -145 11 0 39 66 79 188 l34 102 60 0 c55 -1 59 -2 42 -15 -10
-8 -24 -16 -30 -18 -7 -2 -12 -63 -14 -180 -4 -167 -3 -176 17 -193 28 -24 20
-31 -36 -28 -26 1 -57 3 -68 4 -19 0 -19 1 2 18 20 15 22 29 28 151 5 105 4
132 -6 129 -7 -2 -36 -68 -64 -146 -54 -148 -62 -164 -69 -141 -23 74 -102
277 -112 289 -12 12 -14 -7 -14 -128 l0 -142 26 -11 c37 -13 26 -20 -40 -24
-61 -3 -79 6 -42 23 22 10 23 16 30 164 8 177 3 215 -30 230 -28 13 -23 26 8
23 13 -1 37 -3 53 -4z m-141 -52 c7 -49 -1 -80 -12 -49 -3 8 -20 30 -38 48
-25 25 -40 32 -72 32 -23 0 -44 -6 -49 -12 -4 -7 -8 -43 -10 -80 -1 -49 2 -70
13 -79 21 -17 56 4 74 44 14 31 14 30 18 -47 4 -100 -4 -125 -25 -74 -10 24
-23 38 -40 43 -14 3 -28 4 -31 1 -8 -9 -9 -141 -1 -164 20 -53 136 -30 166 33
20 43 37 46 29 5 -3 -16 -9 -44 -12 -61 l-6 -32 -140 6 c-78 4 -143 8 -145 11
-3 2 5 7 17 11 33 10 38 38 36 209 -2 150 -3 159 -24 176 -12 10 -22 21 -22
24 0 3 60 6 134 6 l133 0 7 -51z m676 41 c0 -5 -5 -10 -10 -10 -24 0 -20 -33
11 -95 19 -36 36 -65 40 -65 10 0 23 19 55 79 l28 53 -22 18 c-12 10 -22 21
-22 24 0 10 119 6 125 -4 3 -5 0 -10 -8 -10 -21 0 -50 -37 -96 -121 -40 -73
-41 -79 -41 -167 0 -89 1 -92 28 -106 30 -17 32 -16 -63 -20 -62 -2 -72 2 -46
21 18 12 21 25 21 92 0 73 -3 84 -49 179 -28 56 -59 107 -70 114 -35 22 -24
28 49 28 40 0 70 -4 70 -10z m-4394 -41 c8 -16 26 -34 39 -39 15 -6 25 -17 25
-29 0 -14 5 -19 15 -14 9 3 15 2 14 -3 -1 -5 -1 -15 0 -23 2 -27 31 10 31 40
0 35 2 35 34 5 l26 -23 -45 -42 c-24 -22 -48 -41 -53 -41 -5 0 -17 -11 -25
-24 -15 -22 -20 -23 -58 -15 -22 5 -57 16 -76 24 -20 8 -44 15 -54 15 -20 0
-49 36 -49 62 0 9 24 34 54 55 30 21 62 50 71 66 19 31 29 28 51 -14z m-438
-35 c18 -15 32 -31 32 -36 0 -16 -62 -36 -94 -31 -50 8 -61 17 -42 36 9 8 16
22 16 31 0 13 15 22 46 25 5 0 25 -11 42 -25z m-148 -9 c0 -28 -21 -33 -39
-11 -10 11 -8 17 6 25 27 16 33 13 33 -14z"/>
<path d="M4862 6811 c-16 -10 -19 -68 -5 -82 18 -18 54 -6 71 24 17 27 16 29
-8 47 -28 22 -39 24 -58 11z"/>
<path d="M4866 6677 c-13 -10 -17 -24 -14 -57 3 -41 6 -45 31 -48 61 -7 89 59
41 97 -31 25 -35 25 -58 8z"/>
<path d="M5474 6672 c-23 -15 -34 -50 -25 -75 21 -55 91 -41 91 18 0 48 -34
78 -66 57z"/>
<path d="M5081 6667 c-12 -31 -6 -37 40 -37 32 0 39 4 39 19 0 18 -17 30 -53
37 -11 3 -21 -4 -26 -19z"/>
<path d="M5967 6675 c-9 -7 -17 -20 -17 -29 0 -14 8 -17 38 -14 28 2 37 7 37
22 0 24 -36 38 -58 21z"/>
<path d="M2717 6313 c-4 -3 -7 -26 -7 -50 0 -41 2 -43 28 -43 31 0 62 26 62
52 0 32 -62 63 -83 41z"/>
<path d="M2717 6184 c-10 -10 -9 -112 2 -118 12 -8 73 12 83 26 12 20 10 64
-4 76 -18 13 -72 24 -81 16z"/>
<path d="M2946 6174 c-31 -30 -20 -44 34 -44 54 0 65 14 32 43 -23 21 -46 22
-66 1z"/>
<path d="M3336 6168 c-24 -33 -20 -38 28 -38 30 0 48 6 57 18 7 9 9 14 5 10
-5 -5 -15 1 -23 12 -19 26 -48 25 -67 -2z"/>
<path d="M3732 6178 c-7 -7 -12 -20 -12 -30 0 -14 8 -18 39 -18 47 0 59 14 35
41 -20 22 -44 25 -62 7z"/>
<path d="M7386 5828 c-8 -13 -19 -48 -25 -78 -8 -45 -7 -57 5 -66 18 -14 112
-10 127 5 16 16 9 90 -11 125 -24 41 -74 48 -96 14z"/>
<path d="M8427 5832 c-21 -23 -37 -75 -37 -119 0 -36 11 -40 90 -34 51 4 63
18 57 69 -9 81 -71 128 -110 84z"/>
<path d="M6880 5213 c-8 -3 -18 -11 -22 -16 -7 -12 -8 -274 0 -294 6 -18 37
-16 77 3 87 41 103 242 24 298 -24 16 -51 19 -79 9z"/>
<path d="M6858 4848 c-3 -7 -4 -82 -4 -166 1 -124 4 -154 16 -162 39 -25 104
1 136 54 29 47 27 178 -3 227 -13 19 -34 41 -48 47 -34 16 -92 15 -97 0z"/>
<path d="M3988 5158 c-7 -44 3 -68 27 -68 26 0 55 24 55 44 0 18 -19 33 -52
41 -22 6 -27 3 -30 -17z"/>
<path d="M3990 4991 c0 -56 4 -61 43 -54 65 13 57 103 -10 103 -33 0 -33 0
-33 -49z"/>
<path d="M4226 5034 c-25 -25 -19 -34 24 -34 41 0 52 14 28 38 -16 16 -33 15
-52 -4z"/>
<path d="M4523 5029 c-18 -6 -23 -16 -23 -42 0 -39 15 -57 47 -57 27 0 47 33
39 66 -8 30 -34 44 -63 33z"/>
<path d="M4931 5021 c-8 -5 -14 -24 -14 -41 0 -35 17 -52 48 -48 17 3 20 11
20 48 0 37 -3 45 -20 48 -11 1 -26 -2 -34 -7z"/>
<path d="M7687 4729 c-68 -56 -86 -126 -44 -173 50 -57 97 0 105 127 5 90 -2
95 -61 46z"/>
<path d="M6749 3974 c-6 -16 -13 -46 -16 -66 -6 -38 -5 -38 29 -38 19 0 37 3
40 6 8 7 -18 104 -31 117 -7 7 -14 1 -22 -19z"/>
<path d="M7435 3987 c-10 -29 -25 -93 -25 -104 0 -8 15 -13 40 -13 45 0 44 -1
28 69 -11 48 -34 74 -43 48z"/>
<path d="M7783 4078 c-4 -7 -9 -89 -11 -181 -4 -150 -2 -170 14 -188 38 -42
108 -14 144 57 19 39 24 64 24 124 0 86 -19 136 -66 175 -32 27 -91 34 -105
13z"/>
<path d="M1643 6432 c-63 -26 -100 -64 -117 -123 -19 -61 -10 -106 28 -158 32
-44 55 -58 105 -70 123 -27 224 64 224 205 0 87 -28 124 -111 148 -71 19 -76
19 -129 -2z"/>
<path d="M2075 6162 c-50 -32 -68 -59 -73 -110 -5 -61 14 -102 63 -132 112
-69 249 60 195 184 -19 46 -48 64 -114 72 -30 4 -49 0 -71 -14z"/>
<path d="M300 6016 c-19 -13 -46 -27 -60 -31 -36 -11 -121 -68 -152 -101 -78
-85 -97 -211 -46 -309 30 -57 55 -82 151 -149 49 -35 73 -45 88 -41 18 6 20 4
14 -14 -3 -11 -22 -46 -41 -78 -19 -31 -34 -61 -34 -65 0 -5 -11 -13 -25 -18
-32 -12 -59 -57 -133 -221 -56 -123 -62 -143 -62 -202 0 -76 11 -111 48 -149
23 -25 33 -28 86 -28 34 1 78 7 98 14 46 17 45 20 58 -132 6 -64 15 -139 21
-165 5 -27 7 -52 4 -56 -5 -8 -42 -215 -50 -280 -3 -22 -12 -73 -21 -113 -32
-146 -32 -146 -15 -161 9 -8 21 -16 27 -18 8 -3 4 -20 -11 -52 -37 -75 -45
-135 -45 -322 l0 -174 -32 -51 c-34 -55 -42 -125 -17 -141 35 -22 208 0 243
32 5 4 1 54 -9 116 l-18 108 32 90 c18 50 43 139 56 198 36 164 43 180 71 174
31 -6 40 7 49 67 3 27 23 81 43 120 21 39 39 80 40 91 6 32 10 29 17 -11 4
-22 11 -52 16 -68 5 -16 9 -52 9 -80 0 -82 8 -99 41 -92 l28 5 0 -67 c0 -58 6
-81 44 -168 68 -154 81 -199 72 -253 -10 -62 -7 -134 6 -141 5 -4 94 -6 197
-6 162 1 192 3 215 19 15 9 27 26 27 36 0 26 -55 79 -88 87 -73 18 -171 91
-190 142 -6 15 -15 63 -22 107 -6 44 -15 103 -20 130 -5 28 -11 75 -15 105 -6
54 -5 56 25 73 36 21 37 34 9 118 -11 35 -25 114 -30 174 -8 94 -13 138 -24
190 -2 6 -12 46 -24 90 l-22 80 26 21 26 21 -16 64 c-19 74 -56 187 -80 243
-17 40 -46 188 -39 195 3 3 25 -5 50 -17 66 -32 127 -39 160 -17 36 23 67 98
98 239 25 111 26 120 10 137 -20 23 -13 42 23 66 51 32 111 94 134 137 22 42
22 45 7 92 -12 36 -21 49 -34 47 -10 -1 -23 6 -29 14 -8 11 -20 14 -37 10 -23
-6 -26 -4 -32 33 -6 37 -3 42 36 79 32 29 56 42 97 50 71 14 101 42 101 92 0
32 -5 41 -30 54 -16 8 -38 15 -49 15 -26 0 -77 -44 -85 -72 -3 -13 -28 -38
-56 -56 l-51 -33 -27 19 c-46 32 -61 33 -78 7 -27 -41 -20 -108 16 -158 l32
-45 -32 -78 c-27 -68 -31 -87 -25 -132 4 -29 3 -58 -2 -65 -5 -7 -22 -46 -38
-87 -16 -41 -37 -89 -48 -107 l-18 -32 -53 42 c-28 23 -80 58 -113 77 -34 19
-64 43 -67 53 -2 10 -14 17 -30 17 -14 0 -36 11 -50 25 -14 14 -42 27 -66 31
-50 8 -59 20 -21 29 40 9 60 34 77 96 21 81 18 103 -27 190 -26 50 -39 87 -36
100 3 12 3 18 0 15 -4 -3 -14 11 -23 31 -13 28 -14 42 -6 52 8 11 0 23 -39 58
-77 70 -125 80 -185 39z m824 -262 c9 -24 2 -26 -12 -4 -7 11 -8 20 -3 20 5 0
12 -7 15 -16z m36 -139 c0 -8 -4 -17 -10 -20 -6 -4 -10 5 -10 20 0 15 4 24 10
20 6 -3 10 -12 10 -20z"/>
<path d="M1638 5926 c-58 -16 -76 -30 -99 -81 -24 -51 -23 -69 2 -121 28 -58
89 -89 160 -81 56 7 80 21 115 68 18 25 24 45 24 83 0 74 -7 91 -48 113 -51
28 -98 34 -154 19z"/>
<path d="M3920 4075 c0 -8 5 -15 10 -15 6 0 10 7 10 15 0 8 -4 15 -10 15 -5 0
-10 -7 -10 -15z"/>
</g>
</svg>
