<?xml version="1.0" encoding="iso-8859-1"?>
<!-- Generator: Adobe Illustrator 19.0.0, SVG Export Plug-In . SVG Version: 6.00 Build 0)  -->
<svg version="1.1" id="Capa_1" xmlns="http://www.w3.org/2000/svg" xmlns:xlink="http://www.w3.org/1999/xlink" x="0px" y="0px"
	 viewBox="0 0 59.635 59.635" style="enable-background:new 0 0 59.635 59.635;" xml:space="preserve">
<path style="fill:#8697CB;" d="M39.817,27.635c0,0.551-0.446,0.998-0.998,1l-4.969,0.013l4.134,5.406l5.833-5.833v-5.902
	c0-0.712-0.059-1.42-0.146-2.124l-3.854,3.854V27.635z"/>
<path style="fill:#90BAE1;" d="M31.487,16.635l6.926-6.925c-0.223-0.206-0.46-0.417-0.715-0.635l-6.88-6.194v13.755H31.487z"/>
<path style="fill:#CC66A1;" d="M32.82,22.635h5.583l4.818-4.818c-0.62-2.329-1.711-4.528-3.224-6.428
	c-0.063-0.079-0.134-0.158-0.2-0.237l-6.964,6.964L32.82,22.635z"/>
<path style="fill:#A4E869;" d="M28.817,16.635V2.888l-6.862,6.17c-0.246,0.211-0.475,0.414-0.69,0.612l6.966,6.966H28.817z"/>
<path style="fill:#F29C1F;" d="M26.817,22.635v-4.586l-6.943-6.942c-0.079,0.094-0.163,0.188-0.238,0.281
	c-1.513,1.9-2.604,4.099-3.224,6.429l4.818,4.818H26.817z"/>
<path style="fill:#71C285;" d="M15.817,28.221l5.833,5.833l4.139-5.413l-4.97,0.013c0,0-0.001,0-0.002,0
	c-0.265,0-0.519-0.104-0.706-0.292c-0.188-0.188-0.294-0.442-0.294-0.708v-3.604l-3.854-3.854c-0.087,0.704-0.146,1.411-0.146,2.124
	V28.221z"/>
<polygon style="fill:#26B99A;" points="43.817,41.681 43.817,31.049 39.21,35.656 "/>
<polygon style="fill:#E59EE5;" points="26.817,30.589 23.077,35.48 26.817,39.221 "/>
<polygon style="fill:#F0785A;" points="33.144,41.723 43.817,55.681 43.817,44.973 37.783,37.083 "/>
<polygon style="fill:#3B97D3;" points="15.817,31.049 15.817,41.681 20.425,35.656 "/>
<polygon style="fill:#F3D55B;" points="30.817,42.635 30.817,57.635 42.794,57.635 31.323,42.635 "/>
<polygon style="fill:#3B97D3;" points="28.312,42.635 16.841,57.635 28.817,57.635 28.817,42.635 "/>
<polygon style="fill:#F5EFCA;" points="21.851,37.083 15.817,44.973 15.817,55.681 26.491,41.723 "/>
<polygon style="fill:#B49ACA;" points="36.558,35.48 32.835,30.612 32.835,39.203 "/>
<path style="fill:#556080;" d="M14.817,27.635v-5.316c0-1.018,0.088-2.027,0.251-3.019l-0.476-0.476
	c-0.263-0.263-0.333-0.633-0.242-0.968c-0.343,1.458-0.533,2.954-0.533,4.462v6.316c0-0.256,0.098-0.512,0.293-0.707
	S14.562,27.635,14.817,27.635z"/>
<path style="fill:#556080;" d="M43.558,58.635H30.817c0,0.553-0.448,1-1,1h15.001c-0.301,0-0.599-0.135-0.795-0.393L43.558,58.635z"
	/>
<path style="fill:#556080;" d="M44.817,30.049v12.94l0.794,1.039c0.335,0.438,0.252,1.066-0.187,1.401
	c-0.181,0.139-0.395,0.206-0.606,0.206l-0.001,0v11.354l0.794,1.039c0.335,0.438,0.252,1.066-0.187,1.401
	c-0.181,0.139-0.395,0.206-0.606,0.206h0.999v-31c0,0.256-0.098,0.512-0.293,0.707L44.817,30.049z"/>
<path style="fill:#556080;" d="M41.563,10.144c-0.667-0.839-1.482-1.661-2.546-2.572L31.16,0.498c-0.737-0.664-1.948-0.664-2.686,0
	l-7.838,7.057c-1.083,0.928-1.897,1.75-2.564,2.588c-1.778,2.234-3.029,4.839-3.696,7.593c0.049-0.118,0.12-0.23,0.216-0.326
	c0.263-0.263,0.634-0.334,0.969-0.242c0.671-2.319,1.777-4.499,3.293-6.403c0.101-0.127,0.22-0.238,0.325-0.361
	c-0.372-0.392-0.37-1.008,0.014-1.393c0.376-0.376,0.973-0.381,1.366-0.032c0.241-0.223,0.477-0.452,0.726-0.666l7.556-6.801
	c0.063-0.492,0.466-0.878,0.975-0.878s0.913,0.386,0.975,0.878l7.556,6.801c0.261,0.224,0.509,0.464,0.762,0.698l0,0
	c0.391-0.391,1.023-0.391,1.414,0s0.391,1.023,0,1.414l-0.026,0.026c0.091,0.107,0.195,0.203,0.282,0.313
	c1.523,1.913,2.633,4.105,3.303,6.437c0.32-0.068,0.665,0.004,0.914,0.253c0.391,0.391,0.391,1.023,0,1.414L44.566,19.3
	c0.164,0.992,0.251,2,0.251,3.019v5.316c0.256,0,0.512,0.098,0.707,0.293s0.293,0.451,0.293,0.707v-6.316
	C45.817,17.912,44.306,13.589,41.563,10.144z"/>
<path style="fill:#556080;" d="M28.817,58.635H16.076l-0.464,0.607c-0.197,0.258-0.494,0.393-0.795,0.393h15.001
	C29.265,59.635,28.817,59.188,28.817,58.635z"/>
<path style="fill:#556080;" d="M14.023,58.027l0.794-1.039V45.635l-0.001,0c-0.211,0-0.425-0.067-0.606-0.206
	c-0.439-0.335-0.522-0.963-0.187-1.401l0.794-1.039v-12.94l-0.707-0.707c-0.195-0.195-0.293-0.451-0.293-0.707v31h0.999
	c-0.211,0-0.425-0.067-0.606-0.206C13.771,59.094,13.688,58.466,14.023,58.027z"/>
<polygon style="fill:#556080;" points="16.841,57.635 16.076,58.635 28.817,58.635 28.817,57.635 "/>
<polygon style="fill:#556080;" points="30.817,57.635 30.817,58.635 43.558,58.635 42.794,57.635 "/>
<polygon style="fill:#556080;" points="15.817,31.049 14.817,30.049 14.817,42.988 15.817,41.681 "/>
<path style="fill:#556080;" d="M15.817,44.973l-0.206,0.269c-0.197,0.258-0.494,0.392-0.794,0.392v11.354l1-1.308V44.973z"/>
<path style="fill:#556080;" d="M15.817,28.221v-5.902c0-0.712,0.059-1.42,0.146-2.124L15.069,19.3c-0.164,0.992-0.251,2-0.251,3.019
	v5.316c0.256,0,0.512,0.098,0.707,0.293L15.817,28.221z"/>
<path style="fill:#556080;" d="M16.413,17.817c0.62-2.329,1.711-4.529,3.224-6.429c0.074-0.093,0.158-0.187,0.238-0.281
	l-0.681-0.681c-0.006-0.006-0.008-0.015-0.014-0.021c-0.105,0.123-0.224,0.234-0.325,0.361c-1.516,1.904-2.622,4.084-3.293,6.403
	c0.162,0.044,0.318,0.115,0.445,0.242L16.413,17.817z"/>
<path style="fill:#556080;" d="M43.817,44.973v10.707l1,1.308V45.635c-0.301,0-0.598-0.135-0.794-0.392L43.817,44.973z"/>
<path style="fill:#556080;" d="M39.998,11.389c1.513,1.9,2.604,4.099,3.224,6.428l0.361-0.361c0.142-0.142,0.318-0.214,0.5-0.253
	c-0.67-2.332-1.78-4.524-3.303-6.437c-0.088-0.11-0.191-0.206-0.282-0.313l-0.7,0.7C39.864,11.231,39.935,11.31,39.998,11.389z"/>
<path style="fill:#556080;" d="M21.265,9.669c0.215-0.198,0.444-0.401,0.69-0.612l6.862-6.17V1.635c0-0.043,0.019-0.08,0.025-0.122
	l-7.556,6.801c-0.249,0.214-0.485,0.443-0.726,0.666c0.015,0.013,0.034,0.018,0.048,0.032L21.265,9.669z"/>
<path style="fill:#556080;" d="M30.817,2.88l6.88,6.194c0.255,0.218,0.492,0.429,0.715,0.635l0.697-0.697
	c-0.253-0.234-0.5-0.474-0.762-0.698l-7.556-6.801c0.005,0.042,0.025,0.079,0.025,0.122V2.88z"/>
<path style="fill:#556080;" d="M43.817,22.318v5.902l0.293-0.293c0.195-0.195,0.451-0.293,0.707-0.293v-5.316
	c0-1.018-0.088-2.027-0.251-3.019l-0.894,0.894C43.758,20.898,43.817,21.606,43.817,22.318z"/>
<polygon style="fill:#556080;" points="43.817,41.681 44.817,42.988 44.817,30.049 43.817,31.049 "/>
<path style="fill:#F0C419;" d="M30.835,27.66c-0.008-0.309,0.11-0.617,0.375-0.819c0.228-0.175,0.506-0.231,0.769-0.188l5.838-0.015
	v-2.003h-6c-0.266,0-0.521-0.105-0.708-0.294c-0.188-0.188-0.293-0.443-0.292-0.709l0.015-4.997h-1.015h-1v5c0,0.553-0.448,1-1,1h-6
	v2.016l5.998-0.016c0,0,0.001,0,0.002,0c0.041,0,0.077,0.018,0.117,0.023c0.067,0.008,0.131,0.017,0.196,0.039
	c0.065,0.022,0.122,0.054,0.182,0.089c0.037,0.021,0.078,0.029,0.113,0.055c0.018,0.014,0.026,0.034,0.042,0.048
	c0.017,0.015,0.04,0.021,0.056,0.038c0.033,0.033,0.048,0.077,0.076,0.113c0.04,0.053,0.08,0.103,0.108,0.161
	c0.027,0.056,0.042,0.113,0.058,0.173c0.018,0.066,0.035,0.129,0.039,0.197c0.001,0.022,0.013,0.042,0.013,0.064v13h1h1.018V27.66z"
	/>
<path style="fill:#556080;" d="M28.793,41.758c-0.008,0.064-0.016,0.125-0.036,0.186c-0.021,0.063-0.053,0.119-0.087,0.178
	c-0.022,0.039-0.03,0.083-0.059,0.12l-0.3,0.393h0.506v-1C28.817,41.677,28.799,41.716,28.793,41.758z"/>
<path style="fill:#556080;" d="M38.817,24.635v3l-5.73,0.015l0.763,0.998l4.969-0.013c0.551-0.002,0.998-0.449,0.998-1v-3.586
	l-0.293,0.293C39.329,24.537,39.073,24.635,38.817,24.635z"/>
<path style="fill:#556080;" d="M30.964,42.122c-0.033-0.059-0.066-0.115-0.087-0.178c-0.02-0.062-0.028-0.123-0.036-0.186
	c-0.005-0.042-0.024-0.081-0.024-0.123v1h0.506l-0.3-0.393C30.995,42.205,30.987,42.161,30.964,42.122z"/>
<path style="fill:#556080;" d="M21.817,23.635h6v-5c-0.256,0-0.512-0.098-0.707-0.293l-0.293-0.293v4.586h-5.586l0.293,0.293
	C21.72,23.123,21.817,23.379,21.817,23.635z"/>
<path style="fill:#556080;" d="M20.817,27.653v-3.018c-0.256,0-0.512-0.098-0.707-0.293l-0.293-0.293v3.604
	c0,0.266,0.106,0.521,0.294,0.708c0.188,0.188,0.441,0.292,0.706,0.292c0.001,0,0.002,0,0.002,0l4.97-0.013l0.767-1.002
	L20.817,27.653z"/>
<polygon style="fill:#556080;" points="27.817,40.221 27.817,29.281 26.817,30.589 26.817,39.221 "/>
<path style="fill:#556080;" d="M28.817,17.635v-1h-0.586l0.293,0.293C28.72,17.123,28.817,17.379,28.817,17.635z"/>
<path style="fill:#556080;" d="M30.901,17.635c0-0.256,0.098-0.512,0.293-0.707l0.293-0.293h-0.669v1H30.901z"/>
<path style="fill:#556080;" d="M31.901,18.635c-0.023,0-0.045-0.012-0.068-0.013l-0.015,5.013h6c0-0.256,0.098-0.512,0.293-0.707
	l0.293-0.293H32.82l0.014-4.519l-0.226,0.226C32.413,18.537,32.157,18.635,31.901,18.635z"/>
<polygon style="fill:#556080;" points="32.835,39.203 32.835,30.612 31.836,29.305 31.836,40.203 "/>
<path style="fill:#556080;" d="M28.312,26.786c-0.059-0.035-0.116-0.067-0.182-0.089C28.194,26.718,28.253,26.751,28.312,26.786z"/>
<path style="fill:#556080;" d="M27.935,26.658c-0.04-0.005-0.077-0.023-0.117-0.023c-0.001,0-0.002,0-0.002,0l-5.998,0.016v-2.016h6
	c0.552,0,1-0.447,1-1v-5h1c-0.552,0-1-0.447-1-1c0,0.256-0.098,0.512-0.293,0.707s-0.451,0.293-0.707,0.293v5h-6
	c0,0.256-0.098,0.512-0.293,0.707s-0.451,0.293-0.707,0.293v3.018l5.739-0.015l0.467-0.611
	C27.245,26.736,27.595,26.618,27.935,26.658z"/>
<path style="fill:#556080;" d="M28.524,40.928c0.033,0.033,0.046,0.075,0.074,0.111c0.041,0.054,0.081,0.106,0.11,0.166
	c0.028,0.058,0.044,0.117,0.06,0.178c0.017,0.063,0.032,0.122,0.036,0.187c0.001,0.022,0.013,0.043,0.013,0.065c0-0.553,0.448-1,1-1
	h-1v-13c0-0.022-0.011-0.042-0.013-0.064c0.015,0.233-0.04,0.472-0.193,0.671l-0.794,1.039v10.94L28.524,40.928z"/>
<path style="fill:#556080;" d="M29.817,18.635h1.015l-0.015,4.997c-0.001,0.266,0.104,0.521,0.292,0.709
	c0.188,0.188,0.442,0.294,0.708,0.294h6v2.003l-5.838,0.015c0.242,0.04,0.472,0.164,0.632,0.374l0.476,0.622l5.73-0.015v-3
	c-0.256,0-0.512-0.098-0.707-0.293s-0.293-0.451-0.293-0.707h-6l0.015-5.013c-0.232-0.016-0.461-0.102-0.639-0.28
	c-0.195-0.195-0.293-0.451-0.293-0.707h-0.083C30.817,18.188,30.37,18.635,29.817,18.635z"/>
<path style="fill:#556080;" d="M28.765,27.374c-0.016-0.06-0.031-0.117-0.058-0.173C28.734,27.256,28.749,27.315,28.765,27.374z"/>
<path style="fill:#556080;" d="M30.835,27.66v12.975h-1.018c0.552,0,1,0.447,1,1c0-0.022,0.011-0.043,0.013-0.065
	c0.004-0.065,0.02-0.124,0.036-0.187c0.016-0.061,0.032-0.12,0.06-0.178c0.029-0.06,0.069-0.112,0.11-0.166
	c0.027-0.036,0.041-0.078,0.074-0.111l0.725-0.725V29.305l-0.813-1.063C30.89,28.068,30.84,27.864,30.835,27.66z"/>
<path style="fill:#556080;" d="M28.467,26.889c0.052,0.045,0.092,0.098,0.132,0.151c-0.028-0.036-0.043-0.08-0.076-0.113
	C28.507,26.911,28.484,26.904,28.467,26.889z"/>
<polygon style="fill:#556080;" points="30.817,16.635 30.817,2.88 29.822,1.984 28.817,2.888 28.817,16.635 "/>
<path style="fill:#556080;" d="M30.491,1.241l0.301,0.271c-0.063-0.492-0.466-0.878-0.975-0.878s-0.913,0.386-0.975,0.878
	l0.301-0.271C29.527,0.897,30.108,0.897,30.491,1.241z"/>
<path style="fill:#556080;" d="M28.817,2.888l1.005-0.904l0.995,0.896V1.635c0-0.043-0.019-0.08-0.025-0.122l-0.301-0.271
	c-0.383-0.345-0.965-0.345-1.348,0l-0.301,0.271c-0.005,0.042-0.025,0.079-0.025,0.122V2.888z"/>
<rect x="28.817" y="16.635" style="fill:#556080;" width="2" height="1"/>
<path style="fill:#556080;" d="M29.817,18.635c0.552,0,1-0.447,1-1h-2C28.817,18.188,29.265,18.635,29.817,18.635z"/>
<rect x="28.817" y="42.635" style="fill:#556080;" width="2" height="15"/>
<path style="fill:#556080;" d="M30.817,58.635h-1h-1c0,0.553,0.448,1,1,1S30.817,59.188,30.817,58.635z"/>
<polygon style="fill:#556080;" points="28.817,57.635 28.817,58.635 29.817,58.635 30.817,58.635 30.817,57.635 "/>
<rect x="28.817" y="41.635" style="fill:#556080;" width="2" height="1"/>
<path style="fill:#556080;" d="M29.817,40.635c-0.552,0-1,0.447-1,1h2C30.817,41.082,30.37,40.635,29.817,40.635z"/>
<path style="fill:#556080;" d="M27.817,42.635c-0.13,0-0.26-0.027-0.382-0.077c-0.123-0.051-0.233-0.124-0.326-0.217l-0.618-0.618
	L15.817,55.681v1.954h1.024l11.471-15H27.817z"/>
<path style="fill:#556080;" d="M16.076,58.635h-1.259v-1.646l-0.794,1.039c-0.335,0.438-0.252,1.066,0.187,1.401
	c0.181,0.139,0.395,0.206,0.606,0.206c0.301,0,0.599-0.135,0.795-0.393L16.076,58.635z"/>
<polygon style="fill:#556080;" points="15.817,57.635 15.817,55.681 14.817,56.988 14.817,58.635 16.076,58.635 16.841,57.635 "/>
<path style="fill:#556080;" d="M27.11,42.341c0.092,0.093,0.203,0.166,0.326,0.217C27.317,42.509,27.206,42.438,27.11,42.341
	L27.11,42.341z"/>
<path style="fill:#556080;" d="M28.67,42.122c-0.043,0.076-0.081,0.155-0.146,0.22c-0.195,0.195-0.451,0.293-0.707,0.293h0.494
	l0.3-0.393C28.64,42.205,28.648,42.161,28.67,42.122z"/>
<path style="fill:#556080;" d="M28.793,41.758c-0.008,0.063-0.016,0.126-0.036,0.186C28.778,41.882,28.786,41.821,28.793,41.758z"/>
<path style="fill:#556080;" d="M28.598,41.038c0.041,0.054,0.082,0.107,0.11,0.166C28.679,41.144,28.639,41.093,28.598,41.038z"/>
<path style="fill:#556080;" d="M28.768,41.383c0.016,0.062,0.032,0.124,0.036,0.187C28.8,41.505,28.785,41.445,28.768,41.383z"/>
<path style="fill:#556080;" d="M32.581,42.286c-0.183,0.21-0.445,0.349-0.745,0.349h-0.018h-0.494l11.471,15h1.024v-1.954
	L33.144,41.723L32.581,42.286z"/>
<path style="fill:#556080;" d="M45.612,58.027l-0.794-1.039v1.646h-1.259l0.464,0.607c0.197,0.258,0.494,0.393,0.795,0.393
	c0.211,0,0.425-0.067,0.606-0.206C45.864,59.094,45.947,58.466,45.612,58.027z"/>
<polygon style="fill:#556080;" points="43.817,57.635 42.794,57.635 43.558,58.635 44.817,58.635 44.817,56.988 43.817,55.681 "/>
<path style="fill:#556080;" d="M30.841,41.758c0.008,0.064,0.016,0.125,0.036,0.186C30.858,41.883,30.849,41.821,30.841,41.758z"/>
<path style="fill:#556080;" d="M30.964,42.122c0.022,0.039,0.03,0.083,0.059,0.12l0.3,0.393h0.494c-0.256,0-0.512-0.098-0.707-0.293
	C31.045,42.277,31.008,42.198,30.964,42.122z"/>
<path style="fill:#556080;" d="M31.817,42.635h0.018c0.301,0,0.562-0.139,0.745-0.349l-0.056,0.056
	C32.329,42.537,32.073,42.635,31.817,42.635z"/>
<path style="fill:#556080;" d="M30.83,41.57c0.004-0.063,0.02-0.125,0.036-0.187C30.85,41.445,30.834,41.505,30.83,41.57z"/>
<path style="fill:#556080;" d="M30.926,41.205c0.029-0.059,0.07-0.112,0.11-0.166C30.995,41.093,30.955,41.144,30.926,41.205z"/>
<path style="fill:#556080;" d="M26.817,17.635c0-0.553,0.448-1,1-1h0.414l-6.966-6.966c-0.55,0.506-0.999,0.974-1.391,1.438
	l6.943,6.942V17.635z"/>
<path style="fill:#556080;" d="M20.56,8.98c-0.393-0.349-0.99-0.345-1.366,0.032c-0.384,0.384-0.386,1.001-0.014,1.393
	C19.611,9.902,20.073,9.429,20.56,8.98z"/>
<path style="fill:#556080;" d="M19.875,11.107c0.392-0.463,0.841-0.932,1.391-1.438l-0.658-0.657
	c-0.014-0.014-0.033-0.019-0.048-0.032c-0.487,0.449-0.949,0.922-1.38,1.425c0.006,0.006,0.008,0.015,0.014,0.021L19.875,11.107z"/>
<path style="fill:#556080;" d="M27.817,18.635v-1h1c0-0.256-0.098-0.512-0.293-0.707l-0.293-0.293h-0.414c-0.552,0-1,0.447-1,1
	v0.414l0.293,0.293C27.306,18.537,27.562,18.635,27.817,18.635z"/>
<path style="fill:#556080;" d="M28.817,17.635h-1v1c0.256,0,0.512-0.098,0.707-0.293S28.817,17.891,28.817,17.635z"/>
<path style="fill:#556080;" d="M31.835,16.635c0.266,0,0.521,0.105,0.708,0.294c0.188,0.188,0.293,0.443,0.292,0.709l-0.001,0.478
	l6.964-6.964c-0.392-0.468-0.841-0.939-1.385-1.443l-6.926,6.925H31.835z"/>
<path style="fill:#556080;" d="M40.498,10.452l0.026-0.026c0.391-0.391,0.391-1.023,0-1.414s-1.023-0.391-1.414,0l0,0
	C39.6,9.466,40.066,9.944,40.498,10.452z"/>
<path style="fill:#556080;" d="M39.798,11.152l0.7-0.7c-0.432-0.508-0.898-0.986-1.388-1.44l-0.697,0.697
	C38.958,10.213,39.406,10.684,39.798,11.152z"/>
<path style="fill:#556080;" d="M30.901,17.635h0.935l-0.003,0.987c0.023,0.002,0.045,0.013,0.068,0.013
	c0.256,0,0.512-0.098,0.707-0.293l0.226-0.226l0.001-0.478c0.001-0.266-0.104-0.521-0.292-0.709
	c-0.188-0.188-0.442-0.294-0.708-0.294h-0.349l-0.293,0.293C30.999,17.123,30.901,17.379,30.901,17.635z"/>
<path style="fill:#556080;" d="M31.833,18.621l0.003-0.987h-0.935c0,0.256,0.098,0.512,0.293,0.707
	C31.371,18.519,31.6,18.605,31.833,18.621z"/>
<polygon style="fill:#556080;" points="20.425,35.656 15.817,41.681 15.817,44.973 21.851,37.083 "/>
<polygon style="fill:#556080;" points="26.817,30.589 26.817,28.638 25.789,28.64 21.65,34.053 23.077,35.48 "/>
<path style="fill:#556080;" d="M14.023,44.027c-0.335,0.438-0.252,1.066,0.187,1.401c0.181,0.139,0.395,0.206,0.606,0.206l0.001,0
	v-2.646L14.023,44.027z"/>
<path style="fill:#556080;" d="M15.817,44.973v-3.293l-1,1.308v2.646c0.301,0,0.598-0.135,0.794-0.392L15.817,44.973z"/>
<path style="fill:#556080;" d="M28.312,26.786c0.054,0.031,0.108,0.062,0.155,0.104c-0.017-0.015-0.025-0.035-0.042-0.048
	C28.39,26.814,28.349,26.807,28.312,26.786z"/>
<path style="fill:#556080;" d="M28.765,27.374c0.018,0.065,0.035,0.129,0.039,0.197C28.8,27.503,28.783,27.44,28.765,27.374z"/>
<path style="fill:#556080;" d="M28.707,27.201c-0.028-0.058-0.068-0.109-0.108-0.161C28.639,27.092,28.679,27.143,28.707,27.201z"/>
<path style="fill:#556080;" d="M28.13,26.697c-0.065-0.022-0.129-0.031-0.196-0.039C28.001,26.666,28.067,26.676,28.13,26.697z"/>
<polygon style="fill:#556080;" points="26.817,30.589 27.817,29.281 27.817,27.635 26.556,27.638 25.789,28.64 26.817,28.638 "/>
<path style="fill:#556080;" d="M28.805,27.571c-0.005-0.068-0.021-0.132-0.039-0.197c-0.016-0.059-0.031-0.117-0.058-0.173
	c-0.028-0.058-0.069-0.109-0.108-0.161c-0.04-0.053-0.08-0.106-0.132-0.151c-0.048-0.041-0.101-0.072-0.155-0.104
	c-0.059-0.034-0.118-0.068-0.182-0.089c-0.063-0.021-0.129-0.031-0.196-0.039c-0.339-0.04-0.69,0.078-0.912,0.369l-0.467,0.611
	l1.261-0.003v1.646l0.794-1.039C28.765,28.042,28.82,27.804,28.805,27.571z"/>
<polygon style="fill:#556080;" points="37.783,37.083 43.817,44.973 43.817,41.681 39.21,35.656 "/>
<polygon style="fill:#556080;" points="32.835,30.612 36.558,35.48 37.985,34.053 33.851,28.648 32.835,28.65 "/>
<path style="fill:#556080;" d="M44.818,45.635c0.211,0,0.425-0.067,0.606-0.206c0.439-0.335,0.522-0.963,0.187-1.401l-0.794-1.039
	L44.818,45.635L44.818,45.635z"/>
<path style="fill:#556080;" d="M43.817,44.973l0.206,0.269c0.197,0.258,0.494,0.392,0.794,0.392v-2.646l-1-1.308V44.973z"/>
<path style="fill:#556080;" d="M31.21,26.841c-0.265,0.202-0.382,0.51-0.375,0.819v-0.006c0-0.551,0.446-0.998,0.998-1l0.146,0
	C31.716,26.61,31.438,26.665,31.21,26.841z"/>
<polygon style="fill:#556080;" points="31.836,27.653 31.836,29.305 32.835,30.612 32.835,28.65 33.851,28.648 33.088,27.65 "/>
<path style="fill:#556080;" d="M31.979,26.653l-0.146,0c-0.551,0.002-0.998,0.449-0.998,1v0.006
	c0.005,0.204,0.054,0.408,0.188,0.582l0.813,1.063v-1.652l1.252-0.003l-0.476-0.622C32.451,26.817,32.222,26.693,31.979,26.653z"/>
<path style="fill:#556080;" d="M14.351,17.856c0.009-0.04,0.016-0.08,0.026-0.12C14.361,17.774,14.362,17.816,14.351,17.856z"/>
<path style="fill:#556080;" d="M19.817,23.635c0-0.553,0.448-1,1-1h0.414l-4.818-4.818c-0.208,0.78-0.351,1.575-0.45,2.378
	l3.854,3.854V23.635z"/>
<path style="fill:#556080;" d="M14.593,18.824l0.476,0.476c0.119-0.723,0.29-1.432,0.493-2.132
	c-0.335-0.092-0.706-0.021-0.969,0.242c-0.096,0.096-0.168,0.207-0.216,0.326c-0.01,0.04-0.016,0.08-0.026,0.12
	C14.259,18.191,14.33,18.561,14.593,18.824z"/>
<path style="fill:#556080;" d="M15.963,20.195c0.099-0.803,0.243-1.598,0.45-2.378l-0.406-0.406
	c-0.127-0.127-0.283-0.198-0.445-0.242c-0.203,0.7-0.374,1.409-0.493,2.132L15.963,20.195z"/>
<path style="fill:#556080;" d="M20.817,24.635v-1h1c0-0.256-0.098-0.512-0.293-0.707l-0.293-0.293h-0.414c-0.552,0-1,0.447-1,1
	v0.414l0.293,0.293C20.306,24.537,20.562,24.635,20.817,24.635z"/>
<path style="fill:#556080;" d="M21.817,23.635h-1v1c0.256,0,0.512-0.098,0.707-0.293S21.817,23.891,21.817,23.635z"/>
<path style="fill:#556080;" d="M38.817,22.635c0.552,0,1,0.447,1,1v0.414l3.854-3.854c-0.099-0.803-0.243-1.598-0.45-2.378
	l-4.818,4.818H38.817z"/>
<path style="fill:#556080;" d="M44.997,18.869c0.391-0.391,0.391-1.023,0-1.414c-0.249-0.249-0.593-0.321-0.914-0.253
	c0.198,0.689,0.365,1.387,0.483,2.098L44.997,18.869z"/>
<path style="fill:#556080;" d="M43.222,17.817c0.208,0.78,0.351,1.575,0.45,2.378l0.894-0.894c-0.117-0.711-0.285-1.409-0.483-2.098
	c-0.182,0.039-0.359,0.111-0.5,0.253L43.222,17.817z"/>
<path style="fill:#556080;" d="M37.817,23.635h1v1c0.256,0,0.512-0.098,0.707-0.293l0.293-0.293v-0.414c0-0.553-0.448-1-1-1h-0.414
	l-0.293,0.293C37.915,23.123,37.817,23.379,37.817,23.635z"/>
<path style="fill:#556080;" d="M38.817,24.635v-1h-1c0,0.256,0.098,0.512,0.293,0.707S38.562,24.635,38.817,24.635z"/>
<polygon style="fill:#556080;" points="32.835,39.203 32.835,41.32 33.144,41.723 37.783,37.083 36.558,35.48 "/>
<polygon style="fill:#556080;" points="39.21,35.656 43.817,31.049 43.817,28.221 37.985,34.053 "/>
<path style="fill:#556080;" d="M44.817,27.635v2.414l0.707-0.707c0.195-0.195,0.293-0.451,0.293-0.707s-0.098-0.512-0.293-0.707
	S45.073,27.635,44.817,27.635z"/>
<path style="fill:#556080;" d="M43.817,28.221v2.828l1-1v-2.414c-0.256,0-0.512,0.098-0.707,0.293L43.817,28.221z"/>
<path style="fill:#556080;" d="M30.841,41.758c-0.005-0.041-0.007-0.082-0.007-0.123h-0.017
	C30.817,41.677,30.836,41.716,30.841,41.758z"/>
<path style="fill:#556080;" d="M30.878,41.944c0.021,0.063,0.053,0.119,0.087,0.178C30.931,42.064,30.898,42.006,30.878,41.944z"/>
<path style="fill:#556080;" d="M31.836,40.65c0.294,0.005,0.584,0.125,0.776,0.378l0.224,0.292v-2.117l-1,1V40.65z"/>
<path style="fill:#556080;" d="M30.866,41.383c0.016-0.061,0.033-0.121,0.06-0.178C30.898,41.263,30.883,41.321,30.866,41.383z"/>
<path style="fill:#556080;" d="M31.11,40.928c-0.033,0.033-0.046,0.075-0.074,0.111c0.053-0.069,0.101-0.142,0.173-0.198
	c0.187-0.143,0.408-0.195,0.626-0.191v-0.447L31.11,40.928z"/>
<path style="fill:#556080;" d="M30.817,41.635h0.017c0-0.022-0.005-0.043-0.004-0.065C30.829,41.592,30.817,41.613,30.817,41.635z"
	/>
<path style="fill:#556080;" d="M32.835,41.635c0,0.252-0.101,0.475-0.255,0.651l0.563-0.563l-0.308-0.403V41.635z"/>
<path style="fill:#556080;" d="M32.835,41.32l-0.224-0.292c-0.192-0.253-0.482-0.372-0.776-0.378v0.985h-1.002
	c0,0.041,0.002,0.082,0.007,0.123c0.008,0.063,0.016,0.126,0.036,0.186c0.02,0.062,0.054,0.12,0.087,0.178
	c0.043,0.076,0.081,0.155,0.146,0.22c0.195,0.195,0.451,0.293,0.707,0.293s0.512-0.098,0.707-0.293l0.056-0.056
	c0.153-0.176,0.255-0.399,0.255-0.651V41.32z"/>
<path style="fill:#556080;" d="M31.037,41.038c-0.041,0.054-0.082,0.107-0.11,0.166c-0.027,0.057-0.044,0.117-0.06,0.178
	c-0.016,0.062-0.032,0.124-0.036,0.187c-0.001,0.022,0.004,0.043,0.004,0.065h1.002V40.65c-0.218-0.004-0.439,0.048-0.626,0.191
	C31.137,40.896,31.09,40.969,31.037,41.038z"/>
<polygon style="fill:#556080;" points="37.783,37.083 39.21,35.656 37.985,34.053 36.558,35.48 "/>
<polygon style="fill:#556080;" points="21.65,34.053 15.817,28.221 15.817,31.049 20.425,35.656 "/>
<polygon style="fill:#556080;" points="26.817,39.221 23.077,35.48 21.851,37.083 26.491,41.723 26.817,41.296 "/>
<path style="fill:#556080;" d="M14.817,30.049v-2.414c-0.256,0-0.512,0.098-0.707,0.293s-0.293,0.451-0.293,0.707
	s0.098,0.512,0.293,0.707L14.817,30.049z"/>
<path style="fill:#556080;" d="M15.817,28.221l-0.293-0.293c-0.195-0.195-0.451-0.293-0.707-0.293v2.414l1,1V28.221z"/>
<path style="fill:#556080;" d="M28.793,41.758c0.005-0.042,0.024-0.081,0.024-0.123h-0.017
	C28.801,41.676,28.799,41.717,28.793,41.758z"/>
<path style="fill:#556080;" d="M28.757,41.944c-0.02,0.062-0.054,0.12-0.087,0.178C28.704,42.063,28.737,42.007,28.757,41.944z"/>
<path style="fill:#556080;" d="M26.817,39.221v2.075l0.206-0.269c0.197-0.258,0.494-0.376,0.794-0.376v-0.43L26.817,39.221z"/>
<path style="fill:#556080;" d="M28.708,41.205c0.027,0.057,0.044,0.117,0.06,0.178C28.752,41.321,28.736,41.263,28.708,41.205z"/>
<path style="fill:#556080;" d="M28.801,41.635h0.017c0-0.022-0.011-0.043-0.013-0.065C28.806,41.591,28.801,41.613,28.801,41.635z"
	/>
<path style="fill:#556080;" d="M28.598,41.038c-0.027-0.036-0.041-0.078-0.074-0.111l-0.707-0.707v0.43
	c0.212,0,0.426,0.051,0.607,0.19C28.497,40.896,28.545,40.969,28.598,41.038z"/>
<path style="fill:#556080;" d="M26.817,41.296l-0.326,0.427l0.618,0.618c-0.18-0.181-0.292-0.43-0.292-0.706V41.296z"/>
<path style="fill:#556080;" d="M27.817,42.635c-0.135,0-0.264-0.028-0.382-0.077C27.558,42.608,27.687,42.635,27.817,42.635z"/>
<path style="fill:#556080;" d="M28.67,42.122c0.033-0.058,0.066-0.116,0.087-0.178c0.02-0.061,0.028-0.123,0.036-0.186
	c0.005-0.041,0.007-0.082,0.007-0.123h-0.983v-0.984c-0.301,0-0.598,0.119-0.794,0.376l-0.206,0.269v0.339
	c0,0.276,0.112,0.526,0.292,0.706l0.001,0.001c0.096,0.096,0.207,0.167,0.325,0.216c0.118,0.049,0.247,0.077,0.382,0.077
	c0.256,0,0.512-0.098,0.707-0.293C28.589,42.277,28.627,42.198,28.67,42.122z"/>
<path style="fill:#556080;" d="M28.768,41.383c-0.016-0.061-0.033-0.121-0.06-0.178c-0.029-0.059-0.07-0.112-0.11-0.166
	c-0.053-0.069-0.101-0.142-0.173-0.198c-0.182-0.139-0.395-0.19-0.607-0.19v0.984h0.983c0-0.022,0.005-0.043,0.004-0.065
	C28.8,41.506,28.785,41.445,28.768,41.383z"/>
<polygon style="fill:#556080;" points="21.851,37.083 23.077,35.48 21.65,34.053 20.425,35.656 "/>
<g>
</g>
<g>
</g>
<g>
</g>
<g>
</g>
<g>
</g>
<g>
</g>
<g>
</g>
<g>
</g>
<g>
</g>
<g>
</g>
<g>
</g>
<g>
</g>
<g>
</g>
<g>
</g>
<g>
</g>
</svg>
